# xmcd
#
# Track frame offsets:
#	150
#	16987
#	34842
#	49445
#	65742
#	80620
#	95400
#	114557
#	131027
#	149212
#	165247
#	179402
#	196670
#	216602
#	232662
#	246850
#	264687
#
# Disc length: 3717 seconds
#
# Revision: 0
# Processed by: cddbd v1.5.2PL0 Copyright (c) Steve Scherf et al.
# Submitted via: dBpowerAMP V4.0
#
DISCID=fd0e8311
DTITLE=Só Chamamé - Diversos
DYEAR=1900
DGENRE=Gaúchas
TTITLE0=Soy El Chamamé - Grupo Canto Da Terra
TTITLE1=Chama Ela Pra Mim - Grupo Raízes
TTITLE2=Pra Que Lembrar - Grupo Rodeio
TTITLE3=Dentro Do Coração - Grupo Estampa
TTITLE4=A Saudade Mata A Gente - Tchê Barbaridade
TTITLE5=Num Chamamé - Beto Mayer
TTITLE6=Cheiro Da China - Os Mateadores
TTITLE7=Recuerdos - Grupo Minuano
TTITLE8=Chamamé Do Amor - Os Tiranos
TTITLE9=De Cantos -  Chiquito E Gupo Bordoneio
TTITLE10=Morena Chamamecera - Grupo Reponte
TTITLE11=De Um Coração Chibeiro - Grupo Quero-Quero
TTITLE12=Vento Norte - Crupo Parceria
TTITLE13=Sentimento - Os Mirins
TTITLE14=Regresso - Terrinha
TTITLE15=Saudade Matadeira - Som Campeiro
TTITLE16=Devaneios - Grupo Rebenque
EXTD=
EXTT0=
EXTT1=
EXTT2=
EXTT3=
EXTT4=
EXTT5=
EXTT6=
EXTT7=
EXTT8=
EXTT9=
EXTT10=
EXTT11=
EXTT12=
EXTT13=
EXTT14=
EXTT15=
EXTT16=
PLAYORDER=
